<svg width="62" height="74" viewBox="0 0 62 74" fill="none" xmlns="http://www.w3.org/2000/svg">
<path d="M4.67733 0.109804C-4.5053 2.07825 2.80785 29.4775 8.95417 54.1146L9.26755 55.1352C13.4878 68.88 28.1095 76.5833 41.9259 72.341C55.7422 68.0988 64.1921 53.3114 59.9718 39.5666L57.345 31.0117C54.2376 21.3453 50.0938 17.6356 44.7784 19.2677C44.0819 19.4815 43.484 19.8147 42.9758 20.2458C41.7338 16.201 37.8746 15.335 36.1003 15.4076C32.5273 15.5969 29.8247 18.3747 29.1793 19.6603C27.5464 16.1901 24.307 15.3408 22.6321 15.4296C19.6494 15.3241 16.6123 18.4599 15.4665 20.041C13.6512 10.2705 10.1142 -1.05568 4.67733 0.109804Z" fill="#4ADE80"/>
<path d="M14.7319 20.6252C14.8554 19.8866 15.5544 19.388 16.293 19.5115C17.0316 19.6351 17.5301 20.334 17.4066 21.0726C17.0887 22.9728 17.1871 25.6885 17.9794 28.1956C20.0113 27.2457 22.1293 26.5239 24.1761 26.0512C25.154 25.8254 26.1287 25.6535 27.0806 25.5422C26.9565 23.7345 27.1582 21.75 27.4725 20.0904C27.6118 19.3546 28.3213 18.8711 29.0571 19.0105C29.7928 19.1498 30.2763 19.8592 30.137 20.595C29.8464 22.1292 29.6801 23.8867 29.7888 25.3957C31.013 25.4142 32.1574 25.5602 33.1707 25.8508C34.4151 26.2076 35.5546 26.8103 36.3628 27.76C37.1961 28.7392 37.5813 29.9763 37.4807 31.3819C37.2767 34.233 35.6419 36.5014 33.4739 38.2718C33.8532 38.7249 34.2585 39.1176 34.6568 39.4258C35.2865 39.913 35.776 40.0959 36.0437 40.1176C36.8018 40.179 37.3412 39.9888 37.761 39.6829C38.2066 39.3581 38.5939 38.8442 38.906 38.1619C39.5412 36.7735 39.7227 34.9979 39.6536 33.8566C39.6439 33.6957 39.6626 33.5397 39.7055 33.3934C38.9222 29.6234 39.0754 25.0599 40.9306 20.4827C41.2119 19.7886 42.0026 19.4541 42.6966 19.7354C43.3906 20.0167 43.7252 20.8073 43.4439 21.5014C41.5514 26.1704 41.6764 30.8003 42.731 34.3041C43.259 36.0586 44.0077 37.4889 44.81 38.4866C45.635 39.5126 46.3987 39.9427 46.9289 40.0176C47.7625 40.1354 48.3431 39.959 48.762 39.6581C49.2003 39.3433 49.5921 38.7965 49.8462 37.9631C50.3628 36.269 50.2088 33.6803 49.0684 30.8339C48.7899 30.1388 49.1277 29.3495 49.8228 29.071C50.518 28.7925 51.3073 29.1302 51.5858 29.8254C52.8743 33.0416 53.192 36.2884 52.4402 38.7541C52.0601 40.0005 51.3827 41.1147 50.344 41.8607C49.2858 42.6208 47.9814 42.9052 46.5493 42.7028C45.0563 42.4917 43.735 41.4772 42.6967 40.1861C42.3225 39.7208 41.9693 39.2008 41.642 38.634C41.5602 38.856 41.4703 39.0753 41.3721 39.2901C40.9328 40.2503 40.2907 41.1948 39.3582 41.8744C38.3999 42.5729 37.2127 42.933 35.8248 42.8206C34.8105 42.7385 33.8217 42.2085 32.9972 41.5705C32.3781 41.0915 31.7804 40.4967 31.2445 39.8296C30.7459 40.1304 30.2369 40.4112 29.7254 40.6726C29.328 40.8759 28.9237 41.0702 28.515 41.2559C32.9634 42.8313 35.5814 45.5559 36.9381 48.6111C38.5702 52.2865 38.2878 56.2363 37.5531 58.8055C37.3472 59.5255 36.5966 59.9423 35.8766 59.7364C35.1566 59.5305 34.7398 58.7799 34.9457 58.0599C35.5573 55.9212 35.7663 52.6544 34.4596 49.7118C33.1931 46.8596 30.4125 44.104 24.6083 43.0192C24.4657 42.9925 24.3325 42.9444 24.2114 42.8788C22.0358 43.5542 19.9632 44.0029 18.3406 44.249C17.6002 44.3613 16.909 43.8522 16.7967 43.1118C16.6844 42.3714 17.1935 41.6801 17.9339 41.5678C20.726 41.1443 24.9454 40.0707 28.491 38.258C32.1216 36.4019 34.5728 34.025 34.7758 31.1884C34.8303 30.426 34.6291 29.9071 34.2976 29.5176C33.941 29.0986 33.3373 28.7197 32.4231 28.4575C30.5736 27.9271 27.8402 27.9883 24.7862 28.6936C21.7612 29.3921 18.5656 30.69 15.8378 32.4788C13.1016 34.2731 10.9206 36.5043 9.78677 39.0316C9.48025 39.7148 8.67787 40.0202 7.99462 39.7137C7.31137 39.4072 7.00597 38.6048 7.31249 37.9216C8.72475 34.7736 11.3416 32.1843 14.3507 30.211C14.7415 29.9548 15.1402 29.708 15.5456 29.4708C14.4751 26.3948 14.3291 23.033 14.7319 20.6252Z" fill="#1F2937"/>
</svg>
